<svg xmlns="http://www.w3.org/2000/svg" version="1.1" viewBox="-5.0 -10.0 110.0 135.0">
 <g>
  <path d="m48.234 98.438h-30.098c-2.0938 0-3.7266-1.2852-4.0625-3.1953-0.35938-2.0391 0.85547-3.9961 2.957-4.7578l14.988-6.5391c2.7656-1.3164 4.2852-2.8359 3.7305-6.6523l-6.6602-38.641c-1.2031-6.0039-0.12891-10.75 3.3906-14.895 8.0156-9.6133 19.688-17.676 32.008-22.102 0.8125-0.29297 1.707 0.12891 2 0.94531 0.29297 0.8125-0.12891 1.707-0.94141 2-11.812 4.2461-22.996 11.961-30.68 21.176-2.8984 3.4141-3.7344 7.207-2.7109 12.312l6.6758 38.723c0.89062 6.1016-2.4844 8.5391-5.5195 9.9883l-15.125 6.5938c-0.85156 0.3125-1.1133 0.87891-1.0352 1.3164 0.089844 0.49609 0.58594 0.60156 0.98438 0.60156h29.988c2.6094-0.38672 3.125-1.5547 3.0977-3.3125 0.011719-1.0391-0.22656-2.2695-0.50391-3.6953-0.66406-3.4219-1.4922-7.6797 0.41406-12.387 3.7227-9.1875 4.1914-26.23-0.8125-33.621-0.28906-0.42578-0.34766-0.96875-0.16016-1.4453 0.1875-0.48047 0.60156-0.83594 1.1016-0.95312 11.434-2.6406 26.219-8.8125 31.703-23.203 0.30859-0.80469 1.2109-1.2109 2.0156-0.90234 0.80469 0.30859 1.2109 1.2109 0.90625 2.0156-5.8789 15.422-21.684 21.957-31.863 24.629 4.8789 9.5703 3.4648 26.133 0.007812 34.656-1.5586 3.8438-0.85938 7.4414-0.24219 10.613 0.29688 1.5312 0.57813 2.9727 0.5625 4.2891 0.035157 2.5352-0.95703 5.75-5.8984 6.4258-0.078125 0.011719-0.14844 0.015625-0.21875 0.015625z"/>
  <path d="m50.945 36.402c-0.62109 0-1.2109-0.37109-1.4531-0.98438-0.32031-0.80078 0.070312-1.7109 0.875-2.0312 8.125-3.2266 20.652-11.5 21.875-21.043 0.10937-0.85547 0.89062-1.4492 1.75-1.3516 0.85547 0.10937 1.4609 0.89062 1.3516 1.75-1.5 11.734-16.238 20.539-23.82 23.551-0.19141 0.074219-0.38672 0.10938-0.57813 0.10938z"/>
  <path d="m46.086 68.934c-0.17969 0-0.36328-0.03125-0.54297-0.097656-0.80859-0.29688-1.2227-1.1992-0.92188-2.0078 2.0078-5.4375 1.5117-14.594-2.4297-19.555-0.53516-0.67578-0.42188-1.6602 0.25-2.1953 0.67578-0.53125 1.6602-0.42188 2.1953 0.25 4.7461 5.9766 5.207 16.375 2.9141 22.582-0.23438 0.63281-0.83203 1.0234-1.4648 1.0234z"/>
  <path d="m48.016 26.762c-0.29297 0-0.59375-0.082031-0.85938-0.25781-0.71875-0.47656-0.92188-1.4453-0.44531-2.1641 5.1094-7.7617 10.734-12.633 17.188-14.891 0.81641-0.28125 1.707 0.14453 1.9922 0.96094 0.28516 0.8125-0.14453 1.707-0.95703 1.9922-5.7852 2.0234-10.891 6.4922-15.609 13.66-0.30469 0.45312-0.80078 0.69922-1.3086 0.69922z"/>
 </g>
<text x="0.0" y="117.5" font-size="5.0" font-weight="bold" font-family="Arbeit Regular, Helvetica, Arial-Unicode, Arial, Sans-serif" fill="#000000">Created by Romaldon</text><text x="0.0" y="122.5" font-size="5.0" font-weight="bold" font-family="Arbeit Regular, Helvetica, Arial-Unicode, Arial, Sans-serif" fill="#000000">from Noun Project</text></svg>